<svg width="42" height="42" viewBox="0 0 42 42" fill="none" xmlns="http://www.w3.org/2000/svg">
<rect width="42" height="42" rx="21" fill="white"/>
<path fill-rule="evenodd" clip-rule="evenodd" d="M21 0C9.40227 0 0 9.40227 0 21C0 32.5977 9.40227 42 21 42C32.5977 42 42 32.5977 42 21C42 9.40227 32.5977 0 21 0ZM14.7134 16.7866C14.3533 16.4389 13.8711 16.2465 13.3705 16.2508C12.8699 16.2552 12.3911 16.4559 12.0372 16.8099C11.6832 17.1639 11.4824 17.6427 11.4781 18.1432C11.4737 18.6438 11.6662 19.126 12.0139 19.4861L19.6503 27.1225C20.0083 27.4804 20.4938 27.6814 21 27.6814C21.5062 27.6814 21.9917 27.4804 22.3497 27.1225L29.9861 19.4861C30.3338 19.126 30.5263 18.6438 30.5219 18.1432C30.5176 17.6427 30.3168 17.1639 29.9628 16.8099C29.6089 16.4559 29.13 16.2552 28.6295 16.2508C28.1289 16.2465 27.6467 16.4389 27.2866 16.7866L21 23.0733L14.7134 16.7866Z" fill="black"/>
</svg>
