<svg width="42" height="42" viewBox="0 0 42 42" fill="none" xmlns="http://www.w3.org/2000/svg">
<rect width="42" height="42" rx="2" fill="white"/>
<rect x="10" y="4" width="27" height="38" fill="black"/>
<path d="M38.48 2H3.52C2.67925 2 2 2.715 2 3.6V40.4C2 41.285 2.67925 42 3.52 42H38.48C39.3208 42 40 41.285 40 40.4V3.6C40 2.715 39.3208 2 38.48 2ZM34.091 13.675H31.0557C28.676 13.675 28.2153 14.865 28.2153 16.615V20.47H33.8962L33.1553 26.505H28.2153V42H22.292V26.51H17.3377V20.47H22.292V16.02C22.292 10.855 25.2892 8.04 29.6687 8.04C31.7682 8.04 33.5685 8.205 34.0957 8.28V13.675H34.091Z" fill="white"/>
</svg>
