<svg width="42" height="42" viewBox="0 0 42 42" fill="none" xmlns="http://www.w3.org/2000/svg">
<rect width="42" height="42" rx="2" fill="white"/>
<path fill-rule="evenodd" clip-rule="evenodd" d="M13.5791 3.108C15.4985 3.01964 16.1105 3 21 3C25.8895 3 26.5015 3.02127 28.4193 3.108C30.3371 3.19473 31.6462 3.50073 32.7916 3.94418C33.9911 4.39745 35.0793 5.106 35.9793 6.02236C36.8956 6.92073 37.6025 8.00727 38.0542 9.20836C38.4993 10.3538 38.8036 11.6629 38.892 13.5775C38.9804 15.5002 39 16.1122 39 21C39 25.8895 38.9787 26.5015 38.892 28.4209C38.8053 30.3355 38.4993 31.6445 38.0542 32.79C37.6025 33.9912 36.8945 35.0796 35.9793 35.9793C35.0793 36.8956 33.9911 37.6025 32.7916 38.0542C31.6462 38.4993 30.3371 38.8036 28.4225 38.892C26.5015 38.9804 25.8895 39 21 39C16.1105 39 15.4985 38.9787 13.5791 38.892C11.6645 38.8053 10.3555 38.4993 9.21 38.0542C8.00878 37.6025 6.92043 36.8944 6.02073 35.9793C5.10499 35.0804 4.39633 33.9925 3.94418 32.7916C3.50073 31.6462 3.19636 30.3371 3.108 28.4225C3.01964 26.4998 3 25.8878 3 21C3 16.1105 3.02127 15.4985 3.108 13.5807C3.19473 11.6629 3.50073 10.3538 3.94418 9.20836C4.397 8.00741 5.10619 6.9196 6.02236 6.02073C6.92079 5.10518 8.00805 4.39654 9.20836 3.94418C10.3538 3.50073 11.6629 3.19636 13.5775 3.108H13.5791ZM28.2736 6.348C26.3755 6.26127 25.806 6.24327 21 6.24327C16.194 6.24327 15.6245 6.26127 13.7264 6.348C11.9705 6.42818 11.0182 6.72109 10.3833 6.96818C9.54382 7.29545 8.94327 7.68327 8.31327 8.31327C7.71607 8.89427 7.25648 9.60155 6.96818 10.3833C6.72109 11.0182 6.42818 11.9705 6.348 13.7264C6.26127 15.6245 6.24327 16.194 6.24327 21C6.24327 25.806 6.26127 26.3755 6.348 28.2736C6.42818 30.0295 6.72109 30.9818 6.96818 31.6167C7.25618 32.3973 7.716 33.1058 8.31327 33.6867C8.89418 34.284 9.60273 34.7438 10.3833 35.0318C11.0182 35.2789 11.9705 35.5718 13.7264 35.652C15.6245 35.7387 16.1924 35.7567 21 35.7567C25.8076 35.7567 26.3755 35.7387 28.2736 35.652C30.0295 35.5718 30.9818 35.2789 31.6167 35.0318C32.4562 34.7045 33.0567 34.3167 33.6867 33.6867C34.284 33.1058 34.7438 32.3973 35.0318 31.6167C35.2789 30.9818 35.5718 30.0295 35.652 28.2736C35.7387 26.3755 35.7567 25.806 35.7567 21C35.7567 16.194 35.7387 15.6245 35.652 13.7264C35.5718 11.9705 35.2789 11.0182 35.0318 10.3833C34.7045 9.54382 34.3167 8.94327 33.6867 8.31327C33.1057 7.71612 32.3984 7.25653 31.6167 6.96818C30.9818 6.72109 30.0295 6.42818 28.2736 6.348ZM18.7009 26.5489C19.9849 27.0834 21.4146 27.1555 22.7459 26.753C24.0771 26.3505 25.2274 25.4982 26.0001 24.3419C26.7728 23.1855 27.1201 21.7967 26.9826 20.4127C26.8452 19.0287 26.2315 17.7354 25.2464 16.7536C24.6184 16.1261 23.8591 15.6455 23.0231 15.3466C22.1871 15.0477 21.2952 14.9379 20.4117 15.025C19.5282 15.1122 18.675 15.3941 17.9135 15.8506C17.152 16.307 16.5012 16.9267 16.0079 17.6648C15.5147 18.403 15.1912 19.2414 15.0608 20.1196C14.9305 20.9978 14.9964 21.8939 15.254 22.7436C15.5115 23.5932 15.9542 24.3752 16.5503 25.0332C17.1463 25.6912 17.8808 26.2088 18.7009 26.5489ZM14.4578 14.4578C15.3169 13.5987 16.3369 12.9172 17.4594 12.4522C18.5819 11.9873 19.785 11.748 21 11.748C22.215 11.748 23.4181 11.9873 24.5406 12.4522C25.6631 12.9172 26.6831 13.5987 27.5422 14.4578C28.4013 15.3169 29.0828 16.3369 29.5478 17.4594C30.0127 18.5819 30.252 19.785 30.252 21C30.252 22.215 30.0127 23.4181 29.5478 24.5406C29.0828 25.6631 28.4013 26.6831 27.5422 27.5422C25.8071 29.2773 23.4538 30.252 21 30.252C18.5462 30.252 16.1929 29.2773 14.4578 27.5422C12.7227 25.8071 11.748 23.4538 11.748 21C11.748 18.5462 12.7227 16.1929 14.4578 14.4578ZM32.304 13.1258C32.5169 12.925 32.6873 12.6835 32.8052 12.4156C32.9231 12.1477 32.9861 11.8589 32.9903 11.5662C32.9946 11.2736 32.9401 10.9831 32.8301 10.7119C32.72 10.4407 32.5567 10.1943 32.3498 9.98734C32.1428 9.78038 31.8964 9.61706 31.6252 9.50703C31.354 9.397 31.0635 9.34251 30.7708 9.34677C30.4782 9.35104 30.1894 9.41398 29.9215 9.53187C29.6536 9.64975 29.4121 9.82019 29.2113 10.0331C28.8207 10.4471 28.6069 10.9971 28.6151 11.5662C28.6234 12.1354 28.8532 12.6789 29.2557 13.0814C29.6582 13.4839 30.2017 13.7136 30.7708 13.7219C31.34 13.7302 31.89 13.5164 32.304 13.1258Z" fill="black"/>
</svg>
