<svg width="42" height="42" viewBox="0 0 42 42" fill="none" xmlns="http://www.w3.org/2000/svg">
<rect width="42" height="42" rx="2" fill="white"/>
<path d="M38.608 12.1447C38.3988 11.3656 37.9886 10.6551 37.4185 10.0842C36.8485 9.51344 36.1384 9.10237 35.3596 8.89219C32.4926 8.12109 21 8.12109 21 8.12109C21 8.12109 9.50742 8.12109 6.64043 8.88809C5.86122 9.09759 5.15084 9.50843 4.58065 10.0793C4.01045 10.6503 3.60051 11.3611 3.39199 12.1406C2.625 15.0117 2.625 21 2.625 21C2.625 21 2.625 26.9883 3.39199 29.8553C3.81445 31.4385 5.06133 32.6854 6.64043 33.1078C9.50742 33.8789 21 33.8789 21 33.8789C21 33.8789 32.4926 33.8789 35.3596 33.1078C36.9428 32.6854 38.1855 31.4385 38.608 29.8553C39.375 26.9883 39.375 21 39.375 21C39.375 21 39.375 15.0117 38.608 12.1447ZM17.3496 26.4961V15.5039L26.8652 20.959L17.3496 26.4961Z" fill="black"/>
</svg>
